/* XPM */
static char *bonetest[] = {
/* columns rows colors chars-per-pixel */
"64 64 187 2",
"   c #000000",
".  c #010100",
"X  c #010101",
"o  c #020201",
"O  c #020202",
"+  c #030302",
"@  c #030303",
"#  c #040403",
"$  c #040404",
"%  c #050504",
"&  c #050505",
"*  c #060605",
"=  c #060606",
"-  c #070706",
";  c #070707",
":  c #080807",
">  c #080808",
",  c #090908",
"<  c #090909",
"1  c #0A0A09",
"2  c #0A0A0A",
"3  c #0B0B0A",
"4  c #0B0B0B",
"5  c #0C0C0B",
"6  c #0C0C0C",
"7  c #0E0E0D",
"8  c #0F0F0E",
"9  c #10100F",
"0  c #101010",
"q  c #111110",
"w  c #121210",
"e  c #121211",
"r  c #151513",
"t  c #151514",
"y  c #161615",
"u  c #171715",
"i  c #181817",
"p  c #191918",
"a  c #1C1C1A",
"s  c #1D1D1B",
"d  c #1E1E1C",
"f  c #1E1E1D",
"g  c #1F1F1D",
"h  c #20201E",
"j  c #222220",
"k  c #232321",
"l  c #242422",
"z  c #252522",
"x  c #252523",
"c  c #282826",
"v  c #292927",
"b  c #2A2A28",
"n  c #2B2B28",
"m  c #2E2E2B",
"M  c #31312F",
"N  c #343431",
"B  c #373733",
"V  c #393935",
"C  c #3B3B38",
"Z  c #3C3C39",
"A  c #3F3F3C",
"S  c #42423E",
"D  c #43433F",
"F  c #434340",
"G  c #444440",
"H  c #454540",
"J  c #454541",
"K  c #464641",
"L  c #464642",
"P  c #474742",
"I  c #474743",
"U  c #484844",
"Y  c #494944",
"T  c #494945",
"R  c #4A4A46",
"E  c #4B4B46",
"W  c #4B4B47",
"Q  c #4C4C47",
"!  c #4C4C48",
"~  c #4D4D48",
"^  c #4D4D49",
"/  c #4E4E49",
"(  c #4E4E4A",
")  c #4F4F4A",
"_  c #4F4F4B",
"`  c #51514C",
"'  c #51514D",
"]  c #52524D",
"[  c #53534E",
"{  c #54544F",
"}  c #535350",
"|  c #555550",
" . c #565650",
".. c #565651",
"X. c #575751",
"o. c #575752",
"O. c #585853",
"+. c #595954",
"@. c #5B5B55",
"#. c #5B5B56",
"$. c #5E5E59",
"%. c #5F5F59",
"&. c #5F5F5A",
"*. c #60605B",
"=. c #62625D",
"-. c #63635D",
";. c #63635E",
":. c #64645E",
">. c #65655F",
",. c #656562",
"<. c #686862",
"1. c #696963",
"2. c #6A6A63",
"3. c #6A6A65",
"4. c #6C6C66",
"5. c #6D6D66",
"6. c #6E6E68",
"7. c #6F6F69",
"8. c #70706A",
"9. c #71716A",
"0. c #73736C",
"q. c #73736D",
"w. c #76766F",
"e. c #777770",
"r. c #787870",
"t. c #7A7A74",
"y. c #7B7B74",
"u. c #7C7C75",
"i. c #7D7D76",
"p. c #7E7E76",
"a. c #7F7F77",
"s. c #7F7F78",
"d. c #808078",
"f. c #81817A",
"g. c #82827B",
"h. c #83837B",
"j. c #82827C",
"k. c #8C8C83",
"l. c #8F8F87",
"z. c #91918A",
"x. c #94948B",
"c. c #97978E",
"v. c #97978F",
"b. c #98988F",
"n. c #9A9A92",
"m. c #9C9C93",
"M. c #9D9D95",
"N. c #9F9F95",
"B. c #9E9E96",
"V. c #9F9F96",
"C. c #A0A096",
"Z. c #A1A198",
"A. c #A4A49B",
"S. c #A4A49D",
"D. c #A6A69D",
"F. c #A9A99F",
"G. c #AFAFA4",
"H. c #B0B0A7",
"J. c #B2B2A7",
"K. c #B0B0A8",
"L. c #B6B6AC",
"P. c #BABAAF",
"I. c #BCBCB1",
"U. c #BEBEB5",
"Y. c #C0C0B6",
"T. c #C4C4B9",
"R. c #CCCCC0",
"E. c #CDCDC3",
"W. c #CFCFC3",
"Q. c #D0D0C3",
"!. c #D9D9CC",
"~. c #DADACD",
"^. c #DCDCCF",
"/. c #E3E3D6",
"(. c #E4E4D7",
"). c #E5E5DC",
"_. c #EDEDE4",
"`. c #F2F2E5",
"'. c #FAFAEC",
"]. c #FBFBEC",
"[. c #FAFAF2",
"{. c #FFFFF2",
"}. c #FEFEF5",
"|. c #FFFFF7",
" X c #FFFFFB",
".X c gray100",
"XX c None",
/* pixels */
"G G G G G G G D G G G G G D G G G G D G G G G G D G G G G G D G G G G G D G G G G G G G G G G G G G G G G G G D G G G G G D G G ",
"G G G G G G G G G G G G G G G G G G G G G G G G G G G G G G G G G G G G G G G G G G G G G G G G G G G G G G G G G G G G G G G G ",
"G G G G G G G G G G G G G D G G G G D G G G G G G G G G G G D G G G G G G G G G G G G G G G G G G G G G G G G G G G G G G D G G ",
"G G G G D G G G G G D G G G G G G G G G G D G G G G G D G G G G G D G G G G G D G G G G G G G G G G G G D G G G G G D G G G G G ",
"G G G G G D G G G G G G G G G G G G G G G G G G G G D G G G G G G G D D G G G +.^ ' G G G G G G G G G G G D G G G G G G G G G G ",
"G G G G G G G G D G G G G G D G G D G G G G G D G G G G G G G G G D D D >.n.s i * p R 1.K D G G G G G G G G G G D G G G G G D G ",
"G G G G G G G D G G G G G G G G G G G G G G G G D G G G G G D G D D R B.> + + + + + + * 8 ' G G G G G G G G G D G G G G G G G G ",
"G G G G G G G G G G D G G G G G G G G G G D G G G G G G G G G G G ^ R + + + + + + + + + + > I.G G G G G G G G G G G D G G G G G ",
"G D G G G G G D G G G D G G G G G G G G D G G G D G G G G G G G G h.* + + + + # + # + + + + 8  XD D G G G G G D G G G D G G G G ",
"G G G G G G G G G G G G G G G G G G G G G G G G G G G G G G G D d.* + + + > 6.I.a. Xf + + + + M G G G G G G G G G G G G G G G G ",
"G G G G G G G G G G G G G G G D D G G G G G G G G G G G G G D G 1.+ + + > ].G G G G K 3.+ + + # XXG G G G G G G G G G G G G G D ",
"G G G G D G G G D G G G G G G G G G G G G G G D G G G D G G D ' * + + +  XG G G G G G ) * + + + I.G G G D G G G D G G G G G G G ",
"G D G G G D G G G G G G G D G G G G D G G G G G G G D G D D D XX> + + *  XG G G G G G G  X# + +  XG G G G G G G G G G G G D G G ",
"G G G G G G G G G G D G G G G G G G G G G D G G G G G G D D D a.+ + + * ' G G G G G G G  X+ + + D ^ R G G G G G G G D G G G G G ",
"G D G G G G G D G G G G G D G G G G D G G G G G D G G G D D D XX* + + >  XG G G G G G G XX+ + + f > c K -.R D D G G G G G D G G ",
"G G G G G G G G G G G G G G G G G G G G G G G G G G G G D D D  .8 + + +  XG G G G G G e.a + + + + + + + * 4  .D G G G G G G G G ",
"G G G G G G G G G G G G G G G G G D G G G G G D G D G G G G G G  X+ + + 3  XG G G G R R + + + + + + + + + + + $.D D G G G G G G ",
"G G G G D G G G G G D G G G G G G G G G G G G G G G G G G G G D ,.+ + + + 3 t.G G G G 9 + + + # + + + + + + + :  XD G G G G G G ",
"G D G G G G G G G G G G G D G G G G G D G G G G G G G D G G G G G t.+ + + + # ;.G G D $.* + * Z B.l. Xk + + + + V ^ G G G G G G ",
"G G G G G G D G G G D G G G G G G G G G D G G G G G G G D G G G G z.+ + + + *  XG G D D ,.V R G G G G R d.+ + + + n.G G G G G G ",
"G D G G G G G D G G G G G G G D G G G G G G G G G G G G D D D D p.+ + + + * {.G G G G G G G G G G G G G ^ > + + #  XG G G G G G ",
"G G G G G G G G D G G G G G G G G G G G G G G G G G G G D D D p.+ + + + *  XG G G G G G G G G G G G G G G ~.+ + + G G G G G G G ",
"G G G G G G G G G G G G G G G G G D G D G G G D G D D D D G t.+ + + + +  XG G G G G G G G G D D G G G G G XX+ + + n ^ G G G G G ",
"G G G G D G G G G G G G D G G G G G G G G G G G G G G D G p.+ + + + #  XG G G G G G R B V R D D G G G G G  X+ + + B G G G G G G ",
"G D G G G G G D G G G G G D G G G G G G G G G G G G G G t.+ + + + +  XK G G G G D  .k + + k.D D G G G G ^ p + + + '.D D D D D G ",
"G G G G G G G G G G G G G G G G G G D G G G G G G D G p.+ + + + #  XG G G G G G  .k + + + + p.D G G G G `.+ + + # R.D D D D G G ",
"G D G G G G G G G G G D G G G D G G G G G G G G D G p.+ + + + *  XG G G G G G ..k + + + + + * XXt.p.U. .+ + + + k  .D D G D G G ",
"G G G G D G G G G G G G G G G G G G G G G G G G G p.+ + + + #  XG G G G G G  .c + + + + + + + + + * + + + + + * XXD D D G G G G ",
"G G G G G D G G G G G G G G G G G D G G G G D G p.+ + + + +  XK D G G G G } c + + + + 8 + + + + + + + + + + * /.G G G G G G G G ",
"G G G G G G G G D G D G G G G G G G G G G D G p.+ + + + #  XG G G G G D  .c + + + + 8 q.G > + + + + + + + 0 6.D G G G G G G D G ",
"G D G G G G G D G G G G G D G G G G G G G G p.+ + + + #  XG G G G G D  .k + + + + 8 q.D G R 1.f * 8 * N S.D G G G G G G G G G G ",
"G G G G G G G G G G G G G G G G G G G D G p.+ + + + +  XG G G G G D  .k + + + + 9 0.D G G G G ' [ 6.^ G D G G D G G D G G G G G ",
"D G G G D D D D D D D D G G G G D D D D t.+ + + + *  XG G G G G G  .k + + + + 8 0.D D D D D D G G G G G G G G G G G G G G G G G ",
"G G G G D D D D G D D D G G G G D D D p.+ + + + *  XG G G G G G o.k + + + + 8 9.D G D D D D D D D G G G G G D G G G G G D G G G ",
"G G G G D D D ^ -.).B.U.z.t.K G D G t.+ + + + #  XG G G G G G  .c + + + + 9 0.D G G G G D D D D G G G G G G G G G D G G G G G G ",
"G G G G D I H.p + + + + # # C {.D p.+ + + + >  XG G G G G G  .k + + + + 8 9.D D D G G G D D D D G G D G G G D G G G G G G G D G ",
"G G D D ^ ' * + + + + + + + + *  X+ + + + #  XG G G G G D  .k + + + + 9 0.D D D G D G G G G G G G G G D G G G G G D G G G G G D ",
"G G D R  .+ + + + + + + + + + + + + + + >  XG G G G G G  .k + + + + 8 9.D D D D G G G G G G D G G G G G G G G G G G G G G G G G ",
"G G D L.+ + + + * f |.-.> # + + + + + +  XG G G G G G ..k + + + + 8 9.D D D D D G G G D G G G G G G G G G G G G G G G G G G G G ",
"D G ^ t + + + 3  XK G G '  X+ + + + #  XG G G G G G  .c + + + + 8 9.D D D D D D G G G G G G G G D G G G G G D G G G G G D G G G ",
"G G Y.+ + + +  XG G G G G K V.+ + +  XG G G G G D  .k + + + + 8 0.D D D G G G G G G G G G G G G G G G G G G G G G G G G G G G G ",
"G G XX+ + + b ^ G G G G G G j.0 * D G G G G G G  .k + + + + 8 9.D D D D G G G G D G G G G G D G G G D G G G G G D G D G G G D G ",
"G G b.+ + + XXD G G G G G G G G R G G G G G G ..k + + + + 8 0.D D D D D G D G G G G G G G G G G G G G G G D G D G G G G G G G G ",
"G G XX+ + + c.D G G G G G G G G G G G G G G  .c + + + + 8 9.D D D D D D G G G G G G D G G G D G G G G G G G G G G G G G G G G G ",
"G G  X+ + + * R G G G G G G G G G G G D G  .k + + + + 8 0.D G G D D G G G G G G G G G D G G G G G G G G G G G G G G G D G G G G ",
"G G V.+ + + *  XG G G G D R 3.*.D G G D  .k + + + + 8 9.D G G D D D G G D G D G G G G G G G G G D G G G D G G G G G G G D G G G ",
"G G ' c + + + + /.d.K K  XG + t  .D D D F.* + + + +  XD D D D D D D D G G G G G G G G G G G G G G G G G G G G G G G G G G G G G ",
"G G D XX+ + + + + 8 n t > + + + 8 R D D ^ * + + + + + +.D D D D D D D D G G G G D G G G G G D G G G D G G G G G D G G G G G D G ",
"G G G G -.+ + + + + + + + + + + 0 B.G G D R XX* + + +  XD D D D G D G G G G G D G G G G G D G G G G G D G G G G G D G G G G G D ",
"G G G G G 9.# + + + + + + + + + XXG G G D D K ^.+ + + > $.D D D G G G G G G G G G G G G G G G G G G G G G G G G G G G G G G G G ",
"G G G G G G p.E + * + + + + + : E G G G D G D  X4 + + # XXD G G G G G G G G G G G D G D G G G G G G G G G D G G G G G D G G G G ",
"G G G G G G G R  .p.K.XX+ + + n.G G G G D D G G r + + + Q.G G G G G G G D G G G G G G G G G G G D G G G G G G G G G G G D G G G ",
"G G G G G G G G D D D XX+ + + G.G G G G G G G ^ k + + + XXD G G G D G G G D G G G G G G G G G D G G G G G G G G G G G G G G G G ",
"G G G G G G G G D D D R.+ + + * R G G G G G G 5.* + + + ~.D G G G G G G G G G G G G D G G G G G G G G G D G D G G G G G G G G G ",
"G G G G G G G G D D D XX* + + + XXG G G G G G S.+ + + > +.G G G G D G G G G G D G G G G G G G G G G G G G G G G G D G D G G G D ",
"G G G G G G G G D D D I k + + + >  X^ G G >.R.+ + + + p.G G G G G G G G G G G G G G G G D G G G G G D G G G G G G G G G G G G G ",
"G G G G G G G G D D D D XX* + + + + 0 m N > + + + + > |.G G G G G G G G G G G G G G G G G D G G G G G G G G G G G G G G G G G G ",
"G D G G G G G D D D G G D A.+ + + + + + + + + + + >  XG G G D G G G G G D G G G G G G G G G G G D G G G G G D G G G G G D G G G ",
"G G G G G G G G D D D G G G -.+ # + + + + + + + > c.G G G G G G G D G G G G G G G D G G G G G D G G G G G G G G G D G G G G G G ",
"G G G G G D G G D D D G G D G $.t > + + + + > Z ^ G G G D G G G G G G G G G D G G G G G G G G G G G D G G G G G G G G G G G D G ",
"G G G G D G G G G G G G G G G G G  .{.K._.t.>.G G G G G G G G G G D G G G G G D G G G G G D G G G G G D G G G G G D G G G G G D ",
"G D G G G G G G G G G G G G G G G G G G G G G G G G G G G G D G G G G G G G G G G G D G G G G G G G G G G G D G G G G G G G G G ",
"G G G G G G G G G G G G G G G G G G G G G G G G G G G G G G G G G G G G G G G G G G G G G G G G G G G G G G G G G G G G G G G G ",
"G D G G G G G G G G G G G G G G G G G G G G G G D G G G G G D G G G G G D G G G G G D G G G G G D G G G G G D G G G G G D G G G "
};
