/* XPM */
static char *dog[] = {
/* columns rows colors chars-per-pixel */
"64 64 16 1",
"  c #231814",
". c #523122",
"X c #684934",
"o c #6B5A4F",
"O c #2B4650",
"+ c #936E56",
"@ c #8E5936",
"# c #AB8A6E",
"$ c #CC9974",
"% c #AC9D90",
"& c #D6B394",
"* c #EBCEAC",
"= c #FCFCFB",
"- c #EDE0CE",
"; c #B7C6CD",
": c #658290",
/* pixels */
"=======================-===-=-===-*#%#;--=======================",
"=========================*&&&;--*&&&;&&#;--===========-=========",
"===================-===-#%%;**---*---*;*:+%-*;*-=-==============",
"=====================-%oXo&*-*---------%&-*--&:#==-=============",
"===============--**---**&;**-;---*-*-%o#*-----*%:==-============",
"=============-&%&*-----*****-**-****&+*-*$$+X+%$XX-=============",
"============-%++$$&&&***&&*$***--&**#&-##&&&*$@@o o=============",
"===========;#oo%&$$$&&&****&-&*****$+-#*******&@%#.&============",
"=-=======--oo%%&#$$**$&&****&+*****$$**********& +%+-=-=========",
"==========*+&o. X$*$&****--&*@$-*$$@**&*&*$$&&&*X X%&&==========",
"-========-+&+X  $&&$**$$&&*&$.$*$##$*&&&&***&$@&&..#&%&-======-=",
"========-#-$XX +*##&*&*$@@$$+.+%++@&##$%$&$$&&oo% X+&*&+;=======",
"=======-#*$$+Xo%X XXXOoO+XXX+o++o@o#o++o@@oooo.o#o..$$&$#;======",
"=======%**$&@. O           oXoooXoooX.       XooOooX$$&#o%;====-",
"=====;%%*&&+X.o          O-=o ..OOX         :==OO..X@+*++;======",
"=====#o&&&+++.XO         o;=% O.. .O       O;-=O . .+++@o%;=====",
"=====%:o*++X+o         OOOO:OOO o+.       OOO::OOO .o@#+.%=-====",
"====-:.#%++XX..   O   OOOOO:OO. ooo      OOOOOOO    +@+@ %=-====",
"====-o.#+@....+.      OOOOOOOOO Xo%o     OOOOOOO    @@@. %======",
"===;=:o%@@.. .+     OOO OOOOOOO%==--;o     OOOO O   @@@. %====-=",
"=====#%:@..  X:     OOOOOO OO%--&---;%O   O OOOO  X.@X@. &======",
"=====%#oX.   .o. O OOOO OOOo%=-o.#o%&-*o      O  .oX@X@. ;======",
"=====-:X .   .OoO   OO O:%;--%o..oo%%%&-;%oO O O  X+..@. -======",
"======o. X   ..o O    O%-=-%#oooXoooo%#+%--%XO   .@+. . .-======",
"======%   .  .o.  O OX;;#:##$o##&;+oo##o@@+*&X  .X.+. X o=======",
"======;  .  ..oO   O%;&+##+X#@o..   X#%$*&$+**.  o++..  %=======",
"=======  .  . oO   :=***&$$#+        .#$&***;--X X+@   O-====-==",
"=======o .  . o.  %-o*$$*$$&#        .$&$*&&**--..+X   %========",
"=======; .  . o.  -.%%*$X@$$$@       .$$&&*&$*--# +.   ;========",
"========Oo  ..o  *&o&&#.$&*$$XX     .@$$$$**&$---X.   %=========",
"========%:  O.O .=o&*&.$$$$$+X.     .@$$$$****#-=%   O==========",
"=-=======%...o. #*$**o@#$$$$@   O    .@$$$&**&##-%.  %========-=",
"==========oo .  $-&*&X++#++@      .    +@+&*&*@@**X o===========",
"==========;:    **&&#@#+@........ . ..  ..@&*&$.**X %===========",
"==========--O.  **&#@#$@.  .XX..XX..@+..   $*&$.-&+oo===========",
"============X   &%&@+$+X   X+@@@X@++@$+$X  @&$$@-+ooo;==========",
"========-===o   %%#.%&+.. .@++$#$$$$$*$&$. .$+$$&ooo=-==========",
"============;   %*%.&$@X. X$#$$#&&&$$&&&&X..+@#$%oX%============",
"============-o  %%#.&+@X..@+$$@@$$$&$&&$#X..o+##%X%=-===========",
"===========-==O O#o.&$#@..@+$$@@@.@*$$&$+@..X+$+%.-=============",
"=========-=====+ o%o$#%X@.XX$+.@@..@$@$$@@..+@+%X%-=============",
"============-==;#O#O%&&o.+.@@X.@@@@$..$+@@ .++##X-==============",
"================;%&#o#$%.+..@.@@@X.@@.+++.X@o%XXo===============",
"================-=:+OX#%+o. X...@@.@XX+@.X+o#Xo %=-====-========",
"===========-======  o oo#oo ..  @% X.+X.o+o%... :===============",
"==================  .  Xoo...   o+ .oo..%o#.   ..-==============",
"=================%      .O ..  .    .  ...    X.O;==============",
"=================o       . .. ..  O        .X.. ;-==============",
"================%...     . ....@@.. . .  ...X.. %===============",
"===============-%X.     ...X..@@@@..  .......+@ X;==============",
"================&%....  ....@@@@+X@@.....X@+@&@  o;;==-=========",
"================;; O..  .@..@@@@@@+...@.@$@@+#.  %--============",
"================-%..XX. ...@@@@@@@$.....##..+X.  ;===-==========",
"=================;o.... ...@$@@@@$@.@.@@$.@.X.. %===============",
"=================-%OO.....@.@@$@@$+@@X@$@.@.. . ================",
"=================-- .. X...@@@$@@$@.@@+$@.....+%=-==============",
"===================o  .....@@@$@$$..@@+@..X..%==================",
"===================;oo .....++#@#$...X..XX..*=-=================",
"====================;;o.....+$+$$@...X..X o-====================",
"===================-==*o@..@.@&+$...O .. +==-===================",
"=======================;*o ...o+% .  .oo%==-====================",
"=====================-====% o.oo+.XOO;--=-======================",
"===========================%%+#o.o+o:===-=======================",
"=================-===========-;=;&=-============================"
};
