/* XPM */
static char *floor[] = {
/* columns rows colors chars-per-pixel */
"64 64 44 1",
"  c #3D5616",
". c #3F5B16",
"X c #415718",
"o c #435D16",
"O c #445D19",
"+ c #485F16",
"@ c #485F1A",
"# c #456316",
"$ c #466219",
"% c #476815",
"& c #496417",
"* c #4B651A",
"= c #4A6B17",
"- c #4D6B1A",
"; c #4E7217",
": c #4F7019",
"> c #50671D",
", c #526C1D",
"< c #596F1F",
"1 c #54731D",
"2 c #57791D",
"3 c #58751F",
"4 c #597A1F",
"5 c #4E6520",
"6 c #4E6B20",
"7 c #516721",
"8 c #546C21",
"9 c #586F22",
"0 c #567321",
"q c #577820",
"w c #5A7422",
"e c #5F7628",
"r c #5C7A22",
"t c #5F7A29",
"y c #607725",
"u c #617C26",
"i c #627C29",
"p c #5E8022",
"a c #628225",
"s c #658229",
"d c #69852B",
"f c #6C8B2D",
"g c #6B8631",
"h c #719131",
/* pixels */
"ar42ra3,*,;41:qtr03aaau434i3,--;33=13,11==;333;3313211-:pptr0qsa",
"u43r4r08-rr3130r1--iyyr344yw0-0u33131;<:3314443r442422sstgw1-1iw",
"4333ppurr4332212111,343334aaryrr1223311==131;3r3=;13rpfhp2111-10",
"1122afauu3u423323-3441134ufauuwrr2143,:==,=;:333,&;11rs2q0211342",
"1-14ufuwrshar4136-wra1-144ddwraff43<<&=;w1,1,0r0,=-141:=1-w6-war",
"rw,3asuwwrawr43w0--ir3r62udir3wsw433;>&&-1--,rw-&&11r4103rw8*0uw",
"4ww1raseriw0r0ww-6ww0rwe33rarwir1r113<,<06008366,03wr0dfri0,,www",
"0eiisiy<3rt012wr0rwei0riiudi90rrw13w3,,::0-wrw00urrr3rrrww67r0ri",
"siiggr1-=*601:tr0raywiatggi16=*6002w1-1---000rw0t0:qq00trq60p00w",
"000wsr33000q1q0tirdyiw000ta00q00000q1-11666---6660::6666qrqrt6-6",
"qrrtiw1-rq00:1q0,wyyw3rrttr0-rr0001:*$-316=*--$-6:qq%:qp31#56661",
"r1---0-11--::q:11rii1r1:--0:;1---:1:==--##--=---66%:%60q01::q610",
"qrw*=110--1100::130w0rww--110--110311==o**---1:-%6:::::60:::$$1q",
"31rr33,r1:3rq:1::-,,113riw1,r:1144131;-#=-::1qrr;111q2ppp;666060",
":-2r431311:2p2::;::%:::13433111-3222,=*#.#=-=:w-6::1222q6%;;1=*:",
"%==11-1-1-::=%--;-%%-%=&11111-1:1==-;*&&$*##=10111q1;==;=%=;=-==",
"%-=$#--*.=-=-$#:-==--#=-##==-.--=-##=o .--*=#1r*-1pq1:=$$-:6===%",
"-=*#==:$.=0--=#=$----=-%*#-:-.$1=-1o*$ $*5---w8*5-0100#$*:%6=666",
"#$-==::1-1q10--=-66$--$$==-:0::q011==$$&*$6,ww*7:66*-8ie=-0:66%%",
"=#-1:1qq12ppr11:-*-#$6$=1111r11prr21=**#.6-,8*>,6=55*80-:$5$%6O$",
"--=2q1211=124112--##$===122211::2p211****--1>,<>0=>-,-1w;>*>%#$=",
"%%:;0:111-:13-1---**;-6=:1111:-:11-=**@,06**><y,-633,&**>=>,6-%1",
"::-%=01-#00,w-*#o,,,q6::#=-0-#00,w0&&+O@>*,9><w7*>i31*oO&>7>,86p",
"-6**---$@-,*1-o#*9e06$:6---=*O#6*1-o+*>88*9,><8>*ey13**>w9w9w066",
"6*00-00-*56--5*$*wy>,,*8w100-*--7=**$o$*&@&+>8@@,3w,,999y<e8ye**",
"=666$60-=$**,-*O>y3**--66#*01*$**--*$$&o+>++@@X+,>3*&@>ey779y8*,",
"$::*O6-#=#----oO>,>*$o--5$5-#-*---1$oo&+ oo++@>>,*,,**>8999ww**+",
"$..$58**$$o==*##-,**-$O..*7***+o*=**$**++++>*>&+>>*,&,,9i988****",
"$$#o**o*7******=*&*8*O$#.**$***5*=**=$oo+>&&*,1-#*&=,=uy93*,**8*",
"$.*,****$O*8-O$$o&*,**o$--**@*OO87$O$.+*+,,>*<w&&*;<1<33,*&*@78*",
"$$*$**,**@**,-O$-,-**#$**$*,*,@@*8-$@**+&>>3<3<>>*:,<,3,-*---***",
"$-0**,,88ww9-7$=,,***@*06=,8,80ww8-$*+**>X>w3*#>*,>>39,=--,,8***",
"+,3ry<y,,<,<&+&,9*>***,<yr<w<,<89*@@>+>,>>><4<+*6,,*><y<=-<,>>@8",
">>,<33y9,9>>>>&<<*>,,**,1www9,9>*>@>77>>,y<1r9XO7*,,&&,,*>97*,>,",
"11w,,,3,yy,7>+>>880wi33w,,,<<9y8*9@>,>&>><,ww,++@+**>>>=,,yw,wwu",
"333>,,>799>>>>787>*w3,30=<9,*8w8*8@9>>>>,,,<3*&&@*>>*9>><<i8>,yw",
"ww7897*779@>789y,@*ey9y8<9,*7*9@+>,<<<>>><<33>>>@>>>w<<weyy9>yi9",
",9e0**7*O>++*8,,,*=,>,8ww****O>*>&><><<+>>><>>>XX@@>,,,ue97>9w97",
"9ww,**@>@@@>*+*@oO**y99y8>@*@5@@>++++><><<,+o>@O@O>>>&>9997@9<99",
">>8788,*7*<>,**O O*>9,*>8887*-78<>>>+++><y>+X<7XX>>>+&>>7ei9>,>y",
"<,*O>797*7e,,***OO+8888*o**97@7w1,>+>@O>,9>+@>@OX@7>>7@77yy7>>99",
",,&++*5O *0*>*78-*7w8-,>++>7OX@8>>>>9*&>7<7>9>*@5@>589e99iy<>>9>",
",>*>>,@+@**,>**-w31*>:***>,,O@**>*@*-,,@+,9<>>@@<@7>@9wyy9,,>,>>",
"+&&*>,**@o*3*@--*-**,#>**&>&*@O@w,@*,>,,>,>>+>7>>@>,89y3,<>>>,7,",
".O$$+&****,,$$OOO O*+XO&$O$$****9*$OO-*>>,&>>9y>>><>0,,>*9>*>>>@",
"O.$.o-=*@&**--OOO*&+++.OO$--**&*,*-@OOoo&&+,>>7@+>9>--@>998*>@X@",
".#***-#$*-=*-*$$**&*OO***$6=$*-=&,*$$$**+X+@>>>>,,<,-78,,,yiy,&O",
"==-:---=-&*.$**$****7-=*----=-=$oo*&$*7*+>OX+7X@,,<>**,9,,9999*,",
"=#:-:0:--$*$O#$#$***,-#-1:3:-6%$#$$&o$*&+&&>&>X+,1y,**,id9999,>,",
"$#--:--=-----*..$==--$$=-=---$----&oo$&**+,>>>,,&,<<,***y9887<,>",
":-=-=6-$$:083-$*--$:31-===--$$-0-3,****>++>>>>>,=*,3,***989@+>3<",
"6--:q61**6:-,,-11q$5,---6101-*6:-,-=11>&>>&>,,<w>>&<,-wr97*>++*=",
"-%:;:q1:1;2233116%.$$-%=:101:112423;11$&+&-:,,<,,&*,,;3r1-%$&.$=",
"=#==:02122pp4--=%#%==-#==:0012ppu4-1-#%=*;=&+,yw>>>=>=31=.=#$==*",
"-$#$-6;6:qa13=&#.$$;;6%.#=-:060pr3-%#o$&&*,*-we7,&,=31-1:=:5$=1-",
":6$-*:66$61*1*#&$$51:66*--6:6.=0*-=#*o.$-&---w,*&<433-&*=065$=1-",
"*-1-*=-$.:=-$-:=%--$#**0-==**o-*=**6=$  $#656--*60qp666==-==%6$%",
"#-=1-0=#-1-:-==%%=-%%%==--w=#=1,:=:::$5$.*==-:160000:q:6;*%%==-$",
"==--:-*--1qr21;=#=::0==:-1<&=--3r211q6$**:=#*1r-:rpq::::%6%%:;:6",
"12w0-1-1:-rr13-1--106q1q3,;,1-;2a23=08$$0-:0-ti660pqpq6:616--q:0",
"433,:1-1114322:10-=:3433,-111111123----*-*1--06-*6q;2:6:1601-*:r",
"414-3w11;1=-113r1r1-14241-31111--112-=---#---1=-::-:60q11qqq0::q",
"44432pr123:-:2q0-0;=-44444ru422;==;1==:-:0=--%.6q:q1-:00r066::-:",
"21r2pappr22222qqaa21=11442appr222422-1;=---;%#=:1:1:::qrptqdp1::"
};
