/* XPM */
static char *home[] = {
/* columns rows colors chars-per-pixel */
"64 64 242 2",
"   c #000000",
".  c #190000",
"X  c #240000",
"o  c #2E0000",
"O  c #340000",
"+  c #3C0500",
"@  c #3F0800",
"#  c #410B00",
"$  c #471600",
"%  c #481500",
"&  c #4D1C00",
"*  c #542500",
"=  c #572900",
"-  c #5B2E00",
";  c #5D3000",
":  c #5E360B",
">  c #5F390E",
",  c #5F3910",
"<  c #633607",
"1  c #643B0D",
"2  c #623C11",
"3  c #4A483F",
"4  c #564B39",
"5  c #694101",
"6  c #6A4216",
"7  c #6E471B",
"8  c #6F481D",
"9  c #76410D",
"0  c #724D23",
"q  c #755127",
"w  c #77532A",
"e  c #79562D",
"r  c #7C5A32",
"t  c #4E4C44",
"y  c #504F46",
"u  c #525047",
"i  c #54544B",
"p  c #595141",
"a  c #58574D",
"s  c #59594F",
"d  c #5D5C51",
"f  c #635B4A",
"g  c #605E53",
"h  c #636256",
"j  c #666559",
"k  c #6A6456",
"l  c #68675B",
"z  c #6B6A5D",
"x  c #736B5B",
"c  c #796A57",
"v  c #7C6C59",
"b  c #6D6D60",
"n  c #706E62",
"m  c #747365",
"M  c #767469",
"N  c #777869",
"B  c #79776B",
"V  c #7C7B6C",
"C  c #7D7C71",
"Z  c #8C521E",
"A  c #8D5522",
"S  c #955B25",
"D  c #925C29",
"F  c #995F28",
"G  c #9D632B",
"H  c #A1662E",
"J  c #A2682F",
"K  c #A46730",
"L  c #A56A31",
"P  c #A96E34",
"I  c #A7733F",
"U  c #AC7236",
"Y  c #AE753A",
"T  c #B66F3A",
"R  c #B3773B",
"E  c #B47B3D",
"W  c #BA7D3F",
"Q  c #886A44",
"!  c #8D704C",
"~  c #81705C",
"^  c #9B7245",
"/  c #927754",
"(  c #947956",
")  c #967C59",
"_  c #897762",
"`  c #8C7E6A",
"'  c #AD7A43",
"]  c #B27D45",
"[  c #B97F40",
"{  c #99815F",
"}  c #8B826F",
"|  c #848474",
" . c #868478",
".. c #8B8A7C",
"X. c #9B8362",
"o. c #9F8868",
"O. c #968972",
"+. c #AE8252",
"@. c #B68146",
"#. c #B3824C",
"$. c #BC8443",
"%. c #B28552",
"&. c #B08558",
"*. c #B48958",
"=. c #A28B6B",
"-. c #A59273",
";. c #A4927B",
":. c #A89577",
">. c #A99678",
",. c #AC9A7C",
"<. c #B48C61",
"1. c #B59067",
"2. c #B7956E",
"3. c #B9956C",
"4. c #BA9B75",
"5. c #BB9D79",
"6. c #C18445",
"7. c #C18947",
"8. c #C48D49",
"9. c #CA934D",
"0. c #CD9550",
"q. c #CF9851",
"w. c #D28C50",
"e. c #D29758",
"r. c #D39C54",
"t. c #D39C5C",
"y. c #C1996E",
"u. c #D6A057",
"i. c #D6A058",
"p. c #DAA559",
"a. c #DEA95D",
"s. c #C1A37F",
"d. c #CDA275",
"f. c #CEA57A",
"g. c #D8AA65",
"h. c #E1AC5F",
"j. c #E4AF61",
"k. c #E5B061",
"l. c #E4B06E",
"z. c #E0B677",
"x. c #EDBF71",
"c. c #949387",
"v. c #9A998C",
"b. c #9E9D90",
"n. c #AF9F82",
"m. c #A3A396",
"M. c #A6A698",
"N. c #B1A084",
"B. c #B3A58B",
"V. c #B7A98E",
"C. c #BEA482",
"Z. c #BCA889",
"A. c #B1A893",
"S. c #BBAD93",
"D. c #BBB297",
"F. c #BEB49B",
"G. c #B1B1A4",
"H. c #B7B7AA",
"J. c #BBBBAC",
"K. c #C0A785",
"L. c #C1A886",
"P. c #C4AC8B",
"I. c #C8A882",
"U. c #C4AF91",
"Y. c #CAAE91",
"T. c #C5B295",
"R. c #C0B59C",
"E. c #CAB293",
"W. c #C8B69C",
"Q. c #CAB99D",
"!. c #D3AE85",
"~. c #D3AF88",
"^. c #D4B28D",
"/. c #D3B693",
"(. c #D5B997",
"). c #D5BB9A",
"_. c #D8BA97",
"`. c #D8BE9C",
"'. c #C5BCA4",
"]. c #C4BDA8",
"[. c #CCBDA3",
"{. c #D1BCA2",
"}. c #D5BFA8",
"|. c #C7C1AB",
" X c #CCC0A6",
".X c #CEC3AA",
"XX c #C2C2B4",
"oX c #C7C7B9",
"OX c #CEC7B2",
"+X c #CACABA",
"@X c #D4C1A5",
"#X c #D4C6AD",
"$X c #D9C3A5",
"%X c #DAC6A9",
"&X c #DDCCAD",
"*X c #D1C5B0",
"=X c #D2CAB5",
"-X c #D4CEBB",
";X c #D8C7B1",
":X c #DCCCB4",
">X c #DDCEBB",
",X c #D6D2BE",
"<X c #DFD1B3",
"1X c #DDD2BD",
"2X c #FDDA99",
"3X c #E0CEBD",
"4X c #E0D3B6",
"5X c #E1D4BB",
"6X c #E2D8BE",
"7X c #FFE89A",
"8X c #FFFFB8",
"9X c #D5D3C2",
"0X c #D6D7C8",
"qX c #D7D8C8",
"wX c #DBD5C3",
"eX c #DCD8C4",
"rX c #DDDCCB",
"tX c #DEDFD0",
"yX c #E2D4C2",
"uX c #E4D6C8",
"iX c #E3DAC4",
"pX c #E3DDCC",
"aX c #E2DED1",
"sX c #E9DED2",
"dX c #E4E0CE",
"fX c #E5E4D4",
"gX c #E7E6D8",
"hX c #E7E8D9",
"jX c #E9E5D5",
"kX c #EBE5DC",
"lX c #EAE8D7",
"zX c #EBECDD",
"xX c #EDEDE1",
"cX c #F1EBE3",
"vX c #F4EFE9",
"bX c #F3F1E7",
"nX c #F4F2EB",
"mX c #F7F6F3",
"MX c #F9F7F4",
"NX c #FBF8F4",
"BX c #FDFCFC",
"VX c None",
/* pixels */
"VXVXVXVXVXVXVXVXVXVXVXVXVXVXVXVXVXVXVXVXVXVXVXVXVXVXVXVXVXVXVXVXVXVXVXVXVXVXVXVXVXVXVXVXVXVXVXVXVXVXVXVXVXVXVXVXVXVXVXVXVXVXVXVX",
"VXVXVXVXVXVXVXVXVXVXVXVXVXVXVXVXVXVXVXVXVXVXVXVXVXVXVXVXVXVXVXVXVXVXVXVXVXVXVXVXVXVXVXVXVXVXVXVXVXVXVXVXVXVXVXVXVXVXVXVXVXVXVXVX",
"VXVXVXVXVXVXVXVXVXVXVXVXVXVXVXVXVXVXVXVXVXVXVXVXVXVXVXVXVXVXVXVXVXVXVXVXVXVXVXVXVXVXVXVXVXVXVXVXVXVXVXVXVXVXVXVXVXVXVXVXVXVXVXVX",
"VXVXVXVXVXVXVXVXVXVXVXVXVXVXVXVXVXVXVXVXVXVXVXVXVXVXVXVXVXVXVXVXVXVXVXVXVXVXVXVXVXVXVXVXVXVXVXVXVXVXVXVXVXVXVXVXVXVXVXVXVXVXVXVX",
"VXVXVXVXVXVXVXVXVXVXVXVXVXVXVXVXVXVXVXVXVXVXVXVXVXVXVXVXVXVXVXVXVXVXVXVXVXVXVXVXVXVXVXVXVXVXVXVXVXVXVXVXVXVXVXVXVXVXVXVXVXVXVXVX",
"VXVXVXVXVXVXVXVXVXVXVXVXVXVXVXVXVXVXVXVXVXVXVXVXVXVXVXVXVXVXVXVXVXVXVXVXVXVXVXVXVXVXVXVXVXVXVXVXVXVXVXVXVXVXVXVXVXVXVXVXVXVXVXVX",
"VXVXVXVXVXVXVXVXVXVXVXVXVXVXVXVXVXVXVXVXVXVXVXVXVXVXVXVXVXVXVXVXVXVXVXVXVXVXVXVXVXVXVXVXVXVXVXVXVXVXVXVXVXVXVXVXVXVXVXVXVXVXVXVX",
"VXVXVXVXVXVXVXVXVXVXVXVXVXVXVXVXVXVXVXVXVXVXVXVXVXVXVXVXVXVXL J VXVXVXVXVXVXVXVXVXVXVXVXVXVXVXVXVXVXVXVXVXVXVXVXVXVXVXVXVXVXVXVX",
"VXVXVXVXVXVXVXVXVXVXVXVXVXVXVXVXVXVXVXVXVXVXVXVXVXVXVXVXVXP J G H VXVXVXVXVXVXVXVXVXVXVXVXVXVXVXVXVXVXVXVXVXVXVXVXVXVXVXVXVXVXVX",
"VXVXVXVXVXVXVXVXVXVXVXVXVXVXVXVXVXVXVXVXVXVXVXVXVXVXVXVXG L $.$.H H VXVXVXVXVXVXVXVXVXVXVXVXVXVXVXVXVXVXVXVXVXVXVXVXVXVXVXVXVXVX",
"VXVXVXVXVXVXVXVXVXVXVXVXVXVXVXVXVXVXVXVXVXVXVXVXVXVXVXJ J $.a.k.7.H L VXVXVXVXVXVXVXVXVXVXVXVXVXVXVXVXVXVXVXVXVXVXVXVXVXVXVXVXVX",
"VXVXVXVXVXVXVXVXVXVXVXVXVXVXVXVXVXVXVXVXVXVXVXVXVXVXR G @.j.j.k.j.8.L H VXVXVXVXVXVXVXVXVXVXVXVXVXVXVXVXVXVXVXVXVXVXVXVXVXVXVXVX",
"VXVXVXVXVXVXVXVXVXVXVXVXVXVXVXVXVXVXVXVXVXVXVXVXVX$.H [ a.k.k.j.j.j.8.L G VXVXVXVXVXVXVXVXVXVXVXVXVXVXVXVXVXVXVXVXVXVXVXVXVXVXVX",
"VXVXVXVXVXVXVXVXVXVXVXVXVXVXVXVXVXVXVXVXVXVXVXVXVXG W a.k.j.j.k.j.j.j.9.L G VXVXVXVXVXVXVXVXVXVXVXVXVXVXVXVXVXVXVXVXVXVXVXVXVXVX",
"VXVXVXVXVXVXVXVXVXVXVXVXVXVXVXVXVXVXVXVXVXVXVXVXG E p.k.k.k.k.p.j.j.j.j.9.L G VXVXVXVXVXVXVXVXVXVXVXVXVXVXVXVXVXVXVXVXVXVXVXVXVX",
"VXVXVXVXVXVXVXVXVXVXVXVXVXVXVXVXVXVXVXVXVXVXVXG Y u.k.j.k.k.q.Y 9.j.j.j.j.9.P H VXVXVXVXVXVXVXVXVXVXVXVXVXVXVXVXVXVXVXVXVXVXVXVX",
"VXVXVXVXVXVXVXVXVXVXVXVXVXVXVXVXVXVXVXVXVXVXG U u.k.j.j.k.r.E o.^ q.j.j.j.j.q.P H VXVXVXVXVXVXVXVXVXVXVXVXVXVXVXVXVXVXVXVXVXVXVX",
"VXVXVXVXVXVXVXVXVXVXVXVXVXVXVXVXVXVXVXVXVXG P r.k.j.j.k.u.I U...} *.q.j.j.j.j.r.P H VXVXVXVXVXVXVXVXVXVXVXVXVXVXVXVXVXVXVXVXVXVX",
"VXVXVXVXVXVXVXVXVXVXVXVXVXVXVXVXVXVXVXVXH P e.j.j.j.k.p.Y s.rX+XH..X%.q.j.j.j.j.r.U G VXVXVXVXVXVXVXVXVXVXVXVXVXVXVXVXVXVXVXVXVX",
"VXVXVXVXVXVXVXVXVXVXVXVXVXVXVXVXVXVXVXG L 0.j.j.j.j.p.R 5.rXhXJ.qXtX X%.r.j.j.j.k.r.U G VXVXVXVXVXVXVXVXVXVXVXVXVXVXVXVXVXVXVXVX",
"VXVXVXVXVXVXVXVXVXVXVXVXVXVXVXVXVXVXG J 9.j.j.j.j.a.E 2.rXzXzXJ.hXhXrX X%.r.j.j.j.k.i.Y G VXVXVXVXVXVXVXVXVXVXVXVXVXVXVXVXVXVXVX",
"VXVXVXVXVXVXVXVXVXVXVXVXVXVXVXVXVXJ J 8.j.j.j.k.a.W 1.rXzXxXtX+XfXzXhXeXQ.%.r.j.j.j.k.i.Y H 7XVXVXVXVXVXVXVXVXVXVXVXVXVXVXVXVXVX",
"VXVXVXVXVXVXVXVXVXVXVXVXVXVXVXVXJ J 7.j.j.j.k.j.$.<.rXzXzXzX0XrXrXxXzXhXeXQ.#.r.k.j.j.k.i.E H T VXVXVXVXVXVXVXVXVXVXVXVXVXVXVXVX",
"VXVXVXVXVXVXVXVXVXVXVXVXVXVXVXL G 7.j.k.j.j.j.$.&.eXzXzXzXfX0XkX9XhXzXzXfXeXQ.#.r.k.j.k.j.p.R G [ VXVXVXVXVXVXVXVXVXVXVXVXVXVXVX",
"VXVXVXVXVXVXVXVXVXVXVXVXVXVXU H $.h.j.j.j.j.8.] wXxXxXxXxX0XfXxXqXtXxXzXhXaX-XU.' r.j.k.k.k.p.W H P VXVXVXVXVXVXVXVXVXVXVXVXVXVX",
"VXVXVXVXVXVXVXVXVXVXVXVXVX[ H W h.k.j.j.j.9.' [.rXwXwX1X9X}.9X>X,X.X>X>XwX>X>X;XY.y.t.k.k.k.j.a.W H U VXVXVXVXVXVXVXVXVXVXVXVXVX",
"VXVXVXVXVXVXVXVXVXVXVXVXBXG E h.j.j.j.k.9.' P.jXcXkXkXvXsXcXMXMXNXBXBXBXBXBXBXBXcX{.] i.k.j.j.k.a.$.H P VXVXVXVXVXVXVXVXVXVXVXVX",
"VXVXVXVXVXVXVXVXVXVXVXVXG R p.j.j.j.j.r.' %XuXzXBXNXnXmXaX9XsXmXkXbXxXgXvXMXxXxXkX:XC.#.p.k.j.j.j.a.$.H H VXVXVXVXVXVXVXVXVXVXVX",
"VXVXVXVXVXVXVXVXVXVXVXH Y i.j.j.j.k.u.I @XzXdXiXmXbXdXbXfX=X-X].9X}.'.wXOX].D.H.>X>X.XT.@.p.j.j.j.j.a.$.H H VXVXVXVXVXVXVXVXVXVX",
"VXVXVXVXVXVXVXVXVXVXG Y u.j.j.j.j.p.E E.zXzXhX;XNXlXiXlXxXkXcX9X9X0XwXNXmX9X].eXsXuX*XwXU.@.a.j.j.j.j.h.7.H H VXVXVXVXVXVXVXVXVX",
"VXVXVXVXVXVXVXVXVXG P r.k.j.j.j.p.E P.hXzXzXxX#XcXnXpXcXBXNXNXMXvXnXvXcXcXkXjXsXyXsX1XtX,XP.@.p.j.j.j.j.h.8.J L VXVXVXVXVXVXVXVX",
"VXVXVXVXVXVXVXVXH P q.j.j.j.k.h.E s.hXzXzXzXxX1X}.uX3X5XwXyXyX3XyXyX3XyXyXyXuXuXpX>X:XzXrX,XL.@.a.j.j.j.j.h.W G P VXVXVXVXVXVXVX",
"VXVXVXVXVXVXVXG L 0.j.j.j.j.a.W 4.fXxXzXzXzXzXfXQ.{.@XW.;._ ~ v c c ` A.}.wXyX9X1XeXfXzXzXdX,XC.@.h.k.k.a.7.G G G VXVXVXVXVXVXVX",
"VXVXVXVXVXVX8XG P r.j.j.j.h.@.3.dXxXzXzXzXzXzXxXhX9Xm.m d z l s i y y u C 0XxXcXxXxXzXzXzXzXdX,XC.@.a.h.[ G G G VXVXVXVXVXVXVXVX",
"VXVXVXVXVXVXVXG G G $.a.h.$.*.fXxXzXzXzXzXxXzXhXM.g d N V z s i i i i i 3 b 0XxXzXzXzXzXzXzXzXeX,X4.E E G S G VXVXVXVXVXVXVXVXVX",
"VXVXVXVXVXVXVXVXG G G P @.#.iXxXzXzXzXzXzXzXzXb.a m | m s i i i i i i i u t  .gXxXzXzXzXzXzXhXqX,XD.Z G G VXVXVXVXVXVXVXVXVXVXVX",
"VXVXVXVXVXVXVXVXVXVXG S S Z.zXzXzXzXzXzXzXzXtXh N | h i i i i i i i i i i u u oXxXzXzXzXzXzXlXqX,XV.: L VXVXVXVXVXVXVXVXVXVXVXVX",
"VXVXVXVXVXVXVXVXVXVXVXG 9 B.hXzXzXzXzXzXzXzXtXm ` | s i i i i i i i i i i i y H.xXzXzXzXzXzXlX9X,XV.- VXVXVXVXVXVXVXVXVXVXVXVXVX",
"VXVXVXVXVXVXVXVXVXVXVXVX% n.zXzXzXxXzXzXzXzXzX..m | s i i i i i i i i i i i y H.xXzXzXzXzXzXlX,X,XN.= VXVXVXVXVXVXVXVXVXVXVXVXVX",
"VXVXVXVXVXVXVXVXVXVXVXVX# N.zXzXzXzXzXzXzXzXxXM.j | s i i i i i i i i i i i u ].xXzXzXzXzXzXfX,X,X:.& VXVXVXVXVXVXVXVXVXVXVXVXVX",
"VXVXVXVXVXVXVXVXVXVXVXVX@ ,.hXzXzXzXzXzXzXzXxXXXh | d i i i i i i i i i i u d 0XxXzXzXzXzXzXfX,X,X>.# VXVXVXVXVXVXVXVXVXVXVXVXVX",
"VXVXVXVXVXVXVXVXVXVXVXVX+ =.hXzXzXzXzXzXzXxXzXrXz | j i i i i i i i i i i u V zXzXzXlXlXlXlXtX,X,X-.# VXVXVXVXVXVXVXVXVXVXVXVXVX",
"VXVXVXVXVXVXVXVXVXVXVXVXO o.hXzXzXlXhXhXhXlXzXfXN V z i i i i i i i i i i t c.zXzXzX6X<X<X<X<X<X-X{ + VXVXVXVXVXVXVXVXVXVXVXVXVX",
"VXVXVXVXVXVXVXVXVXVXVXVXo o.hXdX%X%X%X$X%X$X$XdX| N m i i i i i i i i i i u G.cXzXzXiX&X<X&X&X-X-X{ X VXVXVXVXVXVXVXVXVXVXVXVXVX",
"VXVXVXVXVXVXVXVXVXVXVXVXO X.jXjX)./.(./././.).fXv.n N i i i i i i i i i i d +XkXhXhXdX6X6X6X1X1X=X) . VXVXVXVXVXVXVXVXVXVXVXVXVX",
"VXVXVXVXVXVXVXVXVXVXVXVXO ) fXzX%X(.).).).).&XxXG.h N i i i i i i i i i u M ;X~.^.^._.5X&X&X%X$X X! X VXVXVXVXVXVXVXVXVXVXVXVXVX",
"VXVXVXVXVXVXVXVXVXVXVXVXO / 1X6X:X%X&X:XiX<X<XiX'.k m i i i i i i i i i y v._.d.d.d.^.`.d.d.d.d.I.Q   VXVXVXVXVXVXVXVXVXVXVXVXVX",
"VXVXVXVXVXVXVXVXVXVXVXVXO ( /.f.f.f.f._.`.d.f.d.f.z m s i i i i i i i i s J.~.f.f.f.$X_.f.f.f.f.I.Q   VXVXVXVXVXVXVXVXVXVXVXVXVX",
"VXVXVXVXVXVXVXVXVXVXVXVXO ( /.d.d.d.d.`.~.d.d.d._...b s i i i i i i i y m dXiXiX1X:XiX<X;X%X@X#XQ.r   VXVXVXVXVXVXVXVXVXVXVXVXVX",
"VXVXVXVXVXVXVXVXVXVXVXVXO ( 1X5X4X<X&X5X_._.^.^.6XG.h h i i i i i i i t v.cXcXlX%X(.(.).).(.`.1X].q VXVXVXVXVXVXVXVXVXVXVXVXVXVX",
"VXVXVXVXVXVXVXVXVXVXVXVXO ) jXjX6X6X6X6XjXlXlXlXzX9Xl l i i i i i i i y J.xXzXdX)././././././.=X'.q VXVXVXVXVXVXVXVXVXVXVXVXVXVX",
"VXVXVXVXVXVXVXVXVXVXVXVXO ) fXdX&X&X&X&XdXlXxXzXxXfXN j i i i i i i u l tXxXzXpX%X%X%X%X%X%X`.=XF.8 VXVXVXVXVXVXVXVXVXVXVXVXVXVX",
"VXVXVXVXVXVXVXVXVXVXVXVXO ) jXjX4X4X4X4XiXxXxXxXxXxXm.d s i s i i s t c.zXxXzXzXzXlXzXzXzXhXeX,XD.1 VXVXVXVXVXVXVXVXVXVXVXVXVXVX",
"VXVXVXVXVXVXVXVXVXVXVXVX+ ! =XwX,X,X-X=X=X=X=XOXOXOXA.f s p p p 4 p 4 O.R.R.R.R.D.S.S.S.V.B.>.-.) < VXVXVXVXVXVXVXVXVXVXVXVXVXVX",
"VXVXVXVXVXVXVXVXVXVXVXVX* 6 r r e w q q q 8 8 6 6 7 6 6 1 > > > > > : ; < - ; ; - ; - - - - = * * - VXVXVXVXVXVXVXVXVXVXVXVXVXVX",
"VXVXVXVXVXVXVXVXVXVXVXVX5 & + O @ @ @ O O O @ & $       VXVXVXVXVXVXVXVXVXVXVXVXVXVXVXVXVXVXVXVXVXVXVXVXVXVXVXVXVXVXVXVXVXVXVXVX",
"VXVXVXVXVXVXVXVXVXVXVXVXVXVXVXVXVXVXVXVXVXVXVXVXVXVXVXVXVXVXVXVXVXVXVXVXVXVXVXVXVXVXVXVXVXVXVXVXVXVXVXVXVXVXVXVXVXVXVXVXVXVXVXVX",
"VXVXVXVXVXVXVXVXVXVXVXVXVXVXVXVXVXVXVXVXVXVXVXVXVXVXVXVXVXVXVXVXVXVXVXVXVXVXVXVXVXVXVXVXVXVXVXVXVXVXVXVXVXVXVXVXVXVXVXVXVXVXVXVX",
"VXVXVXVXVXVXVXVXVXVXVXVXVXVXVXVXVXVXVXVXVXVXVXVXVXVXVXVXVXVXVXVXVXVXVXVXVXVXVXVXVXVXVXVXVXVXVXVXVXVXVXVXVXVXVXVXVXVXVXVXVXVXVXVX",
"VXVXVXVXVXVXVXVXVXVXVXVXVXVXVXVXVXVXVXVXVXVXVXVXVXVXVXVXVXVXVXVXVXVXVXVXVXVXVXVXVXVXVXVXVXVXVXVXVXVXVXVXVXVXVXVXVXVXVXVXVXVXVXVX",
"VXVXVXVXVXVXVXVXVXVXVXVXVXVXVXVXVXVXVXVXVXVXVXVXVXVXVXVXVXVXVXVXVXVXVXVXVXVXVXVXVXVXVXVXVXVXVXVXVXVXVXVXVXVXVXVXVXVXVXVXVXVXVXVX",
"VXVXVXVXVXVXVXVXVXVXVXVXVXVXVXVXVXVXVXVXVXVXVXVXVXVXVXVXVXVXVXVXVXVXVXVXVXVXVXVXVXVXVXVXVXVXVXVXVXVXVXVXVXVXVXVXVXVXVXVXVXVXVXVX",
"VXVXVXVXVXVXVXVXVXVXVXVXVXVXVXVXVXVXVXVXVXVXVXVXVXVXVXVXVXVXVXVXVXVXVXVXVXVXVXVXVXVXVXVXVXVXVXVXVXVXVXVXVXVXVXVXVXVXVXVXVXVXVXVX",
"VXVXVXVXVXVXVXVXVXVXVXVXVXVXVXVXVXVXVXVXVXVXVXVXVXVXVXVXVXVXVXVXVXVXVXVXVXVXVXVXVXVXVXVXVXVXVXVXVXVXVXVXVXVXVXVXVXVXVXVXVXVXVXVX"
};
