/* XPM */
static char *sleephouse[] = {
/* columns rows colors chars-per-pixel */
"64 64 256 2",
"   c #030205",
".  c #08060A",
"X  c #09070C",
"o  c #0E0B10",
"O  c #130D0D",
"+  c #110D13",
"@  c #1A151D",
"#  c #191417",
"$  c #1E1821",
"%  c #271B19",
"&  c #231C25",
"*  c #271E28",
"=  c #3D281E",
"-  c #2A232C",
";  c #292228",
":  c #2D2531",
">  c #2F2834",
",  c #33252C",
"<  c #3B2A2E",
"1  c #36292A",
"2  c #342A35",
"3  c #352E3A",
"4  c #3B2C33",
"5  c #362B35",
"6  c #3A323B",
"7  c #3A333C",
"8  c #3C3543",
"9  c #3F3846",
"0  c #3F3948",
"q  c #422D2B",
"w  c #432E30",
"e  c #48332E",
"r  c #42353C",
"t  c #4C3431",
"y  c #483739",
"u  c #563829",
"i  c #553A33",
"p  c #5A3D33",
"a  c #513734",
"s  c #623E2B",
"d  c #433A44",
"f  c #433C4C",
"g  c #453B44",
"h  c #453F50",
"j  c #5E4134",
"k  c #5C423B",
"l  c #644334",
"z  c #6A4633",
"x  c #6E4935",
"c  c #66483B",
"v  c #734C35",
"b  c #754E37",
"n  c #74523D",
"m  c #7E5135",
"M  c #7B543D",
"N  c #775037",
"B  c #4B424D",
"V  c #474249",
"C  c #4A4455",
"Z  c #4E495B",
"A  c #4A4455",
"S  c #574646",
"D  c #534A55",
"F  c #544D5C",
"G  c #574C55",
"H  c #5A515C",
"J  c #534E61",
"K  c #565264",
"L  c #5A5464",
"P  c #5D596D",
"I  c #5A5669",
"U  c #5E5B73",
"Y  c #654C45",
"T  c #6A5347",
"R  c #675957",
"E  c #765845",
"W  c #735D53",
"Q  c #625C6B",
"!  c #645963",
"~  c #625E74",
"^  c #69635C",
"/  c #7B634D",
"(  c #796758",
")  c #7F705C",
"_  c #6B636A",
"`  c #686578",
"'  c #776A63",
"]  c #736C75",
"[  c #7A7167",
"{  c #79757A",
"}  c #797789",
"|  c #7E7C91",
" . c #6C6B85",
".. c #7F8380",
"X. c #845536",
"o. c #82563B",
"O. c #8A5B3C",
"+. c #86593B",
"@. c #925E3B",
"#. c #9A5E37",
"$. c #8F623E",
"%. c #9C623B",
"&. c #95633E",
"*. c #A1663D",
"=. c #8C5E42",
"-. c #835B42",
";. c #8C6145",
":. c #876548",
">. c #846956",
",. c #89765A",
"<. c #936344",
"1. c #9C6B45",
"2. c #9D6C4C",
"3. c #966847",
"4. c #986D52",
"5. c #97744D",
"6. c #9D7453",
"7. c #987959",
"8. c #867664",
"9. c #837978",
"0. c #967965",
"q. c #917669",
"w. c #A36B43",
"e. c #A66E45",
"r. c #A3724B",
"t. c #AC754B",
"y. c #A9774A",
"u. c #AD7C54",
"i. c #A57A58",
"p. c #B47B4D",
"a. c #B67B4B",
"s. c #B27E52",
"d. c #B07F59",
"f. c #A57E63",
"g. c #827D86",
"h. c #807E90",
"j. c #9A845A",
"k. c #8F836C",
"l. c #8A8578",
"z. c #978664",
"x. c #9B8778",
"c. c #9F9178",
"v. c #AA8257",
"b. c #AA955F",
"n. c #B58255",
"m. c #BC8453",
"M. c #BD8A5B",
"N. c #B6865A",
"B. c #BA915C",
"V. c #B4804F",
"C. c #A88465",
"Z. c #A48B7A",
"A. c #AB9564",
"S. c #A79279",
"D. c #B68C67",
"F. c #BA9768",
"G. c #B79976",
"H. c #BAA578",
"J. c #C28B57",
"K. c #C4925B",
"L. c #CB945D",
"P. c #CB9A5D",
"I. c #C39B6C",
"U. c #CC9B63",
"Y. c #CA9C6C",
"T. c #C49566",
"R. c #C79D73",
"E. c #D29D63",
"W. c #D29F69",
"Q. c #C6A569",
"!. c #CCA172",
"~. c #C8A579",
"^. c #CCB176",
"/. c #DCAC69",
"(. c #D5A568",
"). c #D4AC7C",
"_. c #DAAE79",
"`. c #D7AA75",
"'. c #DDB26D",
"]. c #DAB57A",
"[. c #E3B76D",
"{. c #E3BB77",
"}. c #E6C175",
"|. c #E9C77B",
" X c #EAC87D",
".X c #E6C378",
"XX c #89858A",
"oX c #888594",
"OX c #908A88",
"+X c #938F99",
"@X c #989386",
"#X c #999599",
"$X c #9E9CA6",
"%X c #A79888",
"&X c #A19E9D",
"*X c #A19EA8",
"=X c #A9A397",
"-X c #BAA687",
";X c #B9A994",
":X c #B5A994",
">X c #A7A5A7",
",X c #ABA9B4",
"<X c #BBB5A9",
"1X c #B5B3B5",
"2X c #CCAB84",
"3X c #C7AB85",
"4X c #C9B289",
"5X c #D2AD81",
"6X c #D8B687",
"7X c #D7BD95",
"8X c #C5AA94",
"9X c #C2BBAC",
"0X c #C3BDB4",
"qX c #D6BEA9",
"wX c #E1BD87",
"eX c #C0BEC3",
"rX c #DEC080",
"tX c #DCC497",
"yX c #CFC1AB",
"uX c #C9C4BA",
"iX c #DBCAA9",
"pX c #D9CEB9",
"aX c #DDD0B8",
"sX c #E5C58D",
"dX c #E9C884",
"fX c #E6CA96",
"gX c #ECD097",
"hX c #E7D2A9",
"jX c #E7D7B7",
"kX c #E0CCB8",
"lX c #CAC7C8",
"zX c #CFCDD1",
"xX c #D3CEC3",
"cX c #D0CFD2",
"vX c #D8D2CA",
"bX c #DEDCDD",
"nX c #D7D5D5",
"mX c #E6D7C4",
"MX c #E3DED5",
"NX c #E0DFE0",
"BX c #ECE1C9",
"VX c #E8E4DB",
"CX c #F2E5C9",
"ZX c #F3E8D1",
"AX c #E5E4E5",
"SX c #E8E7E8",
"DX c #EDEAE4",
"FX c #EAE9E9",
"GX c #F0EFEC",
"HX c #F3EEE3",
"JX c #F4F2ED",
"KX c #F4F0E6",
"LX c #F5F4F2",
"PX c #F8F7F4",
"IX c #FAF9F6",
"UX c #FEFEFE",
/* pixels */
"UXUXUXUXUXUXUXUXUXUXUXUXUXUXUXUXUXUXUXUXUXUXUXUXUXUXUXUXUXUXUXUXUXUXUXUXUXUXUXUXUXUXUXUXUXUXUXUXUXUXUXUXUXUXUXUXUXUXUXUXUXUXUXUX",
"UXUXUXUXUXUXUXUXUXUXUXUXUXUXUXUXUXUXUXUXUXUXUXUXUXUXUXUXUXUXUXUXUXUXUXUXUXUXUXUXUXUXUXUXUXUXUXUXUXUXUXUXUXUXUXUXUXUXUXUXUXUXUXUX",
"UXUXUXUXUXUXUXUXUXUXUXUXUXUXUXUXUXUXUXUXUXUXUXUXUXUXUXUXUXUXUXUXUXUXUXUXUXUXUXUXUXUXUXUXUXUXUXUXUXUXUXUXUXUXUXUXUXUXUXUXUXUXUXUX",
"UXUXUXUXUXUXUXUXUXUXUXUXUXUXUXUXUXUXUXUXUXUXUXUXUXUXUXUXIXNXzXlXNXIXUXUXUXUXUXUXUXUXUXPXAXzXlXlXnXPXUXUXUXUXUXUXUXUXUXUXUXUXUXUX",
"UXUXUXUXUXUXUXUXUXUXUXUXUXUXUXUXUXUXUXUXUXUXUXUXUXUXUXNX+XI D d K >XGXUXUXUXUXUXUXUXnX{ H F D f B 1XUXUXUXUXUXUXUXUXUXUXUXUXUXUX",
"UXUXUXUXUXUXUXUXUXUXUXUXUXUXUXUXUXUXUXUXUXUXUXUXUXUXnX` f D F K K Z } NXUXUXUXUXUXUXnX} F I ~ K #XDXUXUXUXUXUXUXUXUXUXUXUXUXUXUX",
"UXUXUXUXUXUXUXUXUXUXUXUXUXUXUXUXUXUXUXUXUXUXUXUXUXFXoXZ H y * C K K A ] lXLXUXUXUXUXUXIX$X} } } FXUXUXUXUXUXUXUXUXUXUXUXUXUXUXUX",
"UXUXUXUXUXUXUXUXUXUXUXUXUXUXUXUXUXUXUXUXUXUXUXUXFX+XI R h < , * J K A A J XXAXUXUXUXUXUX,X#XoX} FXUXUXUXUXUXUXUXUXUXUXUXUXUXUXUX",
"UXUXUXUXUXUXUXUXUXUXUXUXUXUXUXUXUXUXUXUXUXUXUXUX*XQ ! h 4 4 , $ * I J U K f ~ lXUXUXUXUX,X*X#X| FXUXUXUXUXUXUXUXUXUXUXUXUXUXUXUX",
"UXUXUXUXUXUXUXUXUXUXUXUXUXUXUXUXUXUXUXUXUXIXNX,X` Q D 5 4 4 , & @ - K I Q J d I ,XLXUXUX,X=X#X| SXUXUXUXUXUXUXUXUXUXUXUXUXUXUXUX",
"UXUXUXUXUXUXUXUXUXUXUXUXUXUXUXUXUXUXUXUXUX1X` ~ ] G 3 5 2 , , , - % ; G Q J h f Z *XLXUX,X>X*XoXAXUXUXUXUXUXUXUXUXUXUXUXUXUXUXUX",
"UXUXUXUXUXUXUXUXUXUXUXUXUXUXUXUXUXUXUXUXFXg.L ] G 5 , q t t a a p p < ; g ! H h f C +XSX<X>X&XoXFXUXUXUXUXUXUXUXUXUXUXUXUXUXUXUX",
"UXUXUXUXUXUXUXUXUXUXUXUXUXUXUXUXUXLXNXlX+Xg.9.C , , a b X.z x O.@.v b e , r ! _ H D h g.#X*X#XoXAXUXUXUXUXUXUXUXUXUXUXUXUXUXUXUX",
"UXUXUXUXUXUXUXUXUXUXUXUXUXUXUXUXMX$XoX9.9.Q d , , p O.1.3.@.1.p.e.X.&.m p w < h _ _ ! f g ~ h.h.FXUXUXUXUXUXUXUXUXUXUXUXUXUXUXUX",
"UXUXUXUXUXUXUXUXUXUXUXUXUXUXUXAXg.! Q Q h 4 w a p =.u.d.v.n.K./.K.<.m.*.m l i q r G ] _ F C ~ } FXUXUXUXUXUXUXUXUXUXUXUXUXUXUXUX",
"UXUXUXUXUXUXUXUXUXUXUXUXGXeX>X} ~ Q L 5 , t p -.;.d.!.5X'././.[.P.y.(.m.e.#.X.X.x q 4 G ! H C Q bXUXUXUXUXUXUXUXUXUXUXUXUXUXUXUX",
"UXUXUXUXUXUXUXUXUXUXGXlXoXU Q L F d , w a x o.6.6.R.7X7XwX[.[.}.K.B././.E.a.e.*.%.E q & , g ! H } VXUXUXUXUXUXUXUXUXUXUXUXUXUXUX",
"UXUXUXUXUXUXUXUXIXeX| I F C d 2 , < a l b <.d.T.i.2X7X4XY.N.v.v.5.B.'.'.[./.L.J.a.=.p i , * g h ; H lXUXUXUXUXUXUXUXUXUXUXUXUXUX",
"UXUXUXUXUXUXUXUXIX>XK f 6 2 2 w t s m O.r.D.R.5Xi.z.,.E u = % O % u / v././.(.L.E.<.s -.i g J Q > # f cXUXUXUXUXUXUXUXUXUXUXUXUX",
"UXUXUXUXUXUXUXUXUXcX` F h 5 t v X.+.w.d.T.).5XC.z q % O .           O % j r.P.E.[.4.-.<.b i G L L f - B 1XIXUXUXUXUXUXUXUXUXUXUX",
"UXUXUXUXUXUXUXUXNX} ~ I d w v %.%.t.J.T.5X6XD.Y % .                       # c F.sX7.<.2.=.z h H P I f 2 V nXUXUXUXUXUXUXUXUXUXUX",
"UXUXUXUXUXUXUXFXoXK I f 4 l X.%.e.p.L.`.7X%XN %                             . 1 q.Z.f.u.r.=.x H L ` C 9 7 +XPXUXUXUXUXUXUXUXUXUX",
"UXUXUXUXUXUXUXbX` F 8 2 i v O.*.a.m.E.7X-Xl %                                   % :X8XJ.d.i.O.T R `  .K 9 d #XUXUXUXUXUXUXUXUXUX",
"UXUXUXUXUXUXLX,XI d : q x X.#.#.a.m.W.2XT %       .                               9.iXR.K.N.r.-.Y L {  .I f D eXUXUXUXUXUXUXUXUX",
"UXUXUXUXUXcXoXU f : * p X.<.#.#.a.s.!.=.%                                         k pX6XB.Y.T.r.v H I ] ` L h C ,XIXUXUXUXUXUXUX",
"UXUXUXUXSX] Z Z : $ , z <.e.#.t.a.s.6.w     .                                     $ 9XtXU.Q.!.M.+.p H Q ] h f h H nXUXUXUXUXUXUX",
"UXUXUXUXzX] F 6 * & < v u.t.w.s.J.u.x #                   X X # $ + .               @XjXwX(.`.W.3.x S L { ` 9 8 8 ] FXUXUXUXUXUX",
"UXUXLXlXoXP 0 2 : , i X.J.t.w.s.K.3.q             o * - 3 0 A K ` ` I > o           R BXjX6X_.6Xi.o.p G H } J f A d #XUXUXUXUXUX",
"UXUXlX` Q C 6 6 : t z @.J.t.w.w.J.M #           @ 3 0 0 > > 3 A K  .| ..[ >         1 pXmXjXwXwXI.O.p 6 G ! ` 0 0 B L nXUXUXUXUX",
"UXUXLXcX#X_ F d 4 p N w.L.K.m.w.d.i .     + $ 8 Z 0 3 8 0 A @ @ 0 U  .| #X#Xd       + <XBXmX7X7XR.=.p , 5 3 f r 3 8 d ] LXUXUXUX",
"UXUXUXUXUXLXAXlXW z O.t.W._.W.J.r.1   . & 6 A J U A 8 8 0 A o   + 8 U  ...#X=X7     . @XBXmXfXfXT.=.c t w 4 4 5 6 5 3 3 +XUXUXUX",
"UXUXUXUXUXUXUXIX8.b 2.K.`.wX5X_.7.%   % 3 f Z I U A 0 > : 3 @ + > 0 A Z U ` oX@X-     9.CXjXfXsXT.=.z p o.b p p t S R G #XIXUXUX",
"UXUXUXUXUXUXUXUXq.=.d.!.wXwXwXwXq.o o & & h J  . .f f h d g 5 f A 0 0 0 8 8 A } XX; o { BXhXfX6XT.=.l v r.<.-.=.-.%XFXSXIXUXUXUX",
"UXUXUXUXUXUXUXLXq.;.d.!.wXfXwXwXE @ $ * 8 8 Z U f 3 Z K h D g J U 0 8 8 * : * A XXV + [ jXhX~.).T.=.x o.t.1.=.r.<.8XUXUXUXUXUXUX",
"UXUXUXUXUXUXUXUX%X<.d.!._.gXwXwXE * * 8 8 * 8 f @ * J P Z g : h U Z 0 8 @ < ; $ I 7 o ^ hXtXH.`.T.=.b O.a.t.1.u.e.qXUXUXUXUXUXUX",
"UXUXUXUXUXUXUXUX%X;.d.!._.gXwX6Xp $ $ > - o & - @ 8 P Q I d + > U U 0 $ % O.l o k S   ^ hX7XI._.Y.O.n O.J.t.r.J.a.kXUXUXUXUXUXUX",
"UXUXUXUXUXUXUXUX&X=.d.R._.gXwX!.p + o @ & X o & > J ~ ~ Q g E R 8 3 * $ % O.z . % w   ^ hX5XT._.T.O.M +.J.a.m.(.J.kXUXUXUXUXUXUX",
"UXUXUXUXUXUXUXUX%X=.f.2X5XgXwXR.i & & o o X o @ 8 U  .~ J Y i.y $ 2 f f 7 1 % & ; $   ^ hX5XY._.T.O.E @.J.J.L./.J.mXUXUXUXUXUXUX",
"UXUXUXUXUXUXUXUXg.=.f.R.!.fX7XI.c 0 J 8 @ o o o 3 ~ ~ U r b z * $ : * 3 9 $ 2 I ] @   [ hX5XR._.D.O.E 3.E.L.(./.K.mXUXUXUXUXUXUX",
"UXUXUXUXUXUXUXIXf.4.f.D.!.wX6XT.W h K A 8 - + X $ f f 8 , v r.f.7.R 6 3 2 B T H XX7   x.hX5X(._.N.=.E w.E.E.E./.L.mXUXUXUXUXUXUX",
"UXUXUXUXUXUXUXLX0.2.f.D.2X6X5XT.>.d K A d 3 : & o o X % v *.Y.wX5X2XZ.>.>.f.D.Y K ] * %XgXdX'.].d.<.E 1.E.(.E./.L.mXUXUXUXUXUXUX",
"UXUXUXUXUXUXUXJXq.4.i.f.R._.!.D.z.2 d R :.s t * # O . + p <.d.)._.Y.D.C.G.I.i.p , J ] G.tXdX{.].n.<.n r.P.`.(./.L.mXUXUXUXUXUXUX",
"UXUXUXUXUXUXUXJXq.=.4.f.D.R.Y.f.D.t E i.J.u.e.=.s s u s -.=.X.r.D.5XD.D.D.i.#.z D #X0X~..XfXdX].C.<.M r.K.:.6.(.U.kXUXUXUXUXUXUX",
"UXUXUXUXUXUXUXLXq.<.4.4.d.T.T.d.D.k p i.R.I.!.Y.t.*.#.#.*.t.d.<.Y 2XT.d.t.#.#.l L } oXc.].dX X}.N.<.M 1.u.j ;.(.E.mXUXUXUXUXUXUX",
"UXUXUXUXUXUXUXLXq.-.<.4.f.d.M.4.f.T < x 4.3.d.8XR.s.%.#.*.t.a.R.T >.T.t.s.w.#.v y 3 9 k.]. X X].N.<.E <.2.c 3.E.E.mXUXUXUXUXUXUX",
"UXUXUXUXUXUXUXIXq.s =.4.4.d.3.E 4.;.< , w i x D.2X2Xs.a.J.R.N.D.C., E i.u.d.2.b 6 f ^ H..X X|.'.s.<.o.<.y.M r.L.W.mXUXUXUXUXUXUX",
"UXUXUXUXUXUXUXUXq.a -.=.2.2.E a E =.p r , * $ i :.2X6X5Xi.R.T.:.9.5 @ y c Y k S k W G.].|. X.X(.u.O.M <.J.u.n.J.L.kXUXUXUXUXUXUX",
"UXUXUXUXUXIXGXIXg.w s b =.2.-.i p -.s Y >.Y g w , Y R.-X' G.S.! r y Y 7.z.z.7.A.z.z.{. X X|.'.K.u.=.M @.m.E.J.a.n.;XJXGXUXUXUXUX",
"UXUXUXUXUXPXDXJX{ < e i o.<.x i c +.x :.F.D.0.>.W h Y Y d Y g w c j.j.^.}.}.'.}.H.F. X.X X'.P.J.s.3.E O.y.V.*.*.*.c.xXGXUXUXUXUX",
"UXUXUXUXIXPXVXDXOXq y t v X.z a N +.v M N.K.T.G.f.q.>.>.>.,.z.C.Q./.m. X.X}.}.|.Q.F..X}..XK.K.B.d.=.M +.*.&.@.X.M k.<XLXUXUXUXUX",
"UXUXUXPXDXVXVXuX9.a a j x N x a x m v v t.u.M.T.D.f.f.R.].dXgX]./.'.B. X.X}.}.}.B.Q.}.}.'.p.m.n.r.-.b X.&.m v x n [ =XMXLXUXUXUX",
"UXIXJXGXVXxX0X=X( Y k j v z z a z x x x <.w.w.m.d.d.i.Y.].}.gX'./.Q.B. X X X}.'.v.Q.'.'.K.r.V.5.>.T n :.&./ E W ^ ^ [ eXIXUXUXUX",
"UXUXJXVXxX=XOXOX[ ) ( E / E v z x N x x X.$.$.*.s.d.y.K.(.(..XP.(.(.v.dX X X XP.5.K.P.B.n.5.$./ / T c / j.,.) [ ^ _ { uXAXLXUXUX",
"UXIXGXVX9X@X....[ { [ ) 8.,./ E M / E x m m v +.<.3.v.m.K.J.'.V.E.(.v.dX|.|. Xb.5.j.v.v.5.:.n / E E / ,.,.) ) [ z.:X<XvXLXUXUXUX",
"UXUXUXJXJXlX#XOX..l.OXl.l.@X8.^ ) j.,.( / n c n b :.<.y.p.V.B.V.K.P.v.}.}.}.[.5./ j.j.$.,.:./ ( ,.[ k.8.( ^ ) j.H.9XvXVXPXUXUXUX",
"UXUXUXUXUXUXJXDXvX>X%Xc.@X<X%X>.j.c.c.z.,.) ( T W >.:.:.3.5.j.v.B.B.j.Q.Q.Q.Q.j.5.j.j.z.z.k.k.k.l.@X=X:X%X:X;XpXVXJXIXUXUXUXUXUX",
"UXUXUXUXUXUXUXUXIXPXNXxXuXyX;X;X;X-XH.H.A.z.8.) ^ ' ) j.) ,.,.,.v.b.j.z.b.b.b.b.b.A.G.H.4X^.;X9X<XuXVXLXPXPXUXUXUXUXUXUXUXUXUXUX",
"UXUXUXUXUXUXUXUXUXUXUXUXUXLXVXDXVXpXiXaXiXH.j.k.,.,.k.j.,.,.,.k.,.j.z.A.H.^.^.{.^.^.4X6XiXaXyXMXVXnXPXUXUXUXUXUXUXUXUXUXUXUXUXUX",
"UXUXUXUXUXUXUXUXUXUXUXUXUXUXUXUXUXUXBXtXtX^.^.H.H.b.b.b.b.b.b.F.H.4XtXsXhXCXZXZXCXBXCXVXPXIXIXUXUXUXUXUXUXUXUXUXUXUXUXUXUXUXUXUX",
"UXUXUXUXUXUXUXUXUXUXUXUXUXUXUXUXUXUXUXJXVXVXJXHXBXhXhXiXsXtXsXgXhXjXBXHXIXUXUXIXUXUXUXUXUXUXUXUXUXUXUXUXUXUXUXUXUXUXUXUXUXUXUXUX",
"UXUXUXUXUXUXUXUXUXUXUXUXUXUXUXUXUXUXUXUXUXUXUXIXLXIXUXUXIXIXIXPXPXUXUXUXUXUXUXUXUXUXUXUXUXUXUXUXUXUXUXUXUXUXUXUXUXUXUXUXUXUXUXUX",
"UXUXUXUXUXUXUXUXUXUXUXUXUXUXUXUXUXUXUXUXUXUXUXUXIXIXUXUXUXUXUXUXUXUXUXUXUXUXUXUXUXUXUXUXUXUXUXUXUXUXUXUXUXUXUXUXUXUXUXUXUXUXUXUX",
"UXUXUXUXUXUXUXUXUXUXUXUXUXUXUXUXUXUXUXUXUXUXUXUXUXUXUXUXUXUXUXUXUXUXUXUXUXUXUXUXUXUXUXUXUXUXUXUXUXUXUXUXUXUXUXUXUXUXUXUXUXUXUXUX",
"UXUXUXUXUXUXUXUXUXUXUXUXUXUXUXUXUXUXUXUXUXUXUXUXUXUXUXUXUXUXUXUXUXUXUXUXUXUXUXUXUXUXUXUXUXUXUXUXUXUXUXUXUXUXUXUXUXUXUXUXUXUXUXUX"
};
