/* XPM */
static char *wall[] = {
/* columns rows colors chars-per-pixel */
"64 64 51 1",
"  c #AF643B",
". c #B1673E",
"X c #B46C42",
"o c #B77147",
"O c #B77148",
"+ c #BB7246",
"@ c #BB7549",
"# c #BE7A4F",
"$ c #C37B4E",
"% c #C37D51",
"& c #C58254",
"* c #CB8555",
"= c #CA8758",
"- c #CD8857",
"; c #CC8A5A",
": c #CE905E",
"> c #D18D5B",
", c #D98E5A",
"< c #D4915E",
"1 c #DD925E",
"2 c #D39462",
"3 c #D49A66",
"4 c #D69D69",
"5 c #DD9561",
"6 c #DD9A66",
"7 c #DC9D6A",
"8 c #DDA26D",
"9 c #DDA671",
"0 c #DEA873",
"q c #E1945F",
"w c #E19661",
"e c #E29B65",
"r c #E49E69",
"t c #E5A36C",
"y c #E9A56E",
"u c #E6A770",
"i c #E6A972",
"p c #E9A770",
"a c #EBAB74",
"s c #EBAF78",
"d c #EEB077",
"f c #EEB27A",
"g c #F1B57D",
"h c #F2B87F",
"j c #EEB780",
"k c #EFB982",
"l c #EFBF89",
"z c #F2BB82",
"x c #F1BF88",
"c c #F5C087",
"v c #F1C089",
/* pixels */
"aifxczdi8ssiiiiugzccczzx0zczccaufcxzczfa3szkiiigzcziippti:izzs9f",
"iidzzcdi8siiiiiuscczcczx0czzzzaufcczzzfa:fzkisigzzziiiyti-ijzdia",
"aiaxccii9siiupuuazzczcjviczzzhpufczzczfa:fckiiizzzdiiytyi;8gzfii",
"aiazcvii90iiyuuuijxzxzzc8czzczpufxzzzkfs:skfiiazzzsaiiiti:9dzhii",
"duazvhui0iaiutuuugxzckhx8jzzzjptfczzzzfi:szsipihczdiiuiti:ifzzii",
"duizvhus0ippyuuuigzzczzx8jzzzhitfzzzczfs:izsuuizzzauyutti-8fzzat",
"duahzd8h0ipituptufczzzhv:jzzzguyfxzzzzss:izautuhczsiyii89-8fzjii",
"s8ihcduh9uipptiutfzzckzv3jzzzgu8szzkzkfi:ihiiticzzsiisza0-tfzzsi",
"f8izziiz98iuttpuudckchzv8ghchduusczzzzdi:9zuutuhzzauidcsi-ifhhfi",
"f8pzzisz88iuutuu8dzzzzhv8ghzhdutszzkzzds-9huutyhzzdiigzh0;9hhhsi",
"s8azgisz9ttiittutizzzzgv9hzzhgutdzzhzzgi-thuutihzzditgzfi;9zfzst",
"stazaigz88ttagsitizczzhv9hzhhhutdzzzzzds&8hyutuhzzsiidzgi;izzhft",
"stazaazj8tyuazzatugzhhhv8hzzhgptszzhzhds&8htytphzhdtidzgi-izfhdt",
"fuazidzh8tttszzgtughhhhv8gzhghpuazzzzhfa&8guutyhzzdttshdi-izzhst",
"stszifhz37tuszzjuufhhhhv8hzhggatizzhzhhd&8guttughkdttshsi;izzzit",
"atsgughh38tiszzzpufhhzhv8hzgfgdt8fhhhhhd&8futtyghhdttshs9;izffat",
"aufsigzz3ttydzzhatfhgzgc8hhgggdutdhhghzs#8ftttyggzdttagai-8zhgpt",
"atgsihgz38tydgzgatdhgzgx8hhhgggy8ihhfghs@3fyttugfzattdgii&tzhftt",
"athapgzh3tyugzzzstsjhzgx8hgggggptuhhdshso3dyttygghittpguu$8hggit",
"auhiiggz:8yugzggftajgjgzthgggfgdtughddhso6stttyfghirtadu8&8hgf8t",
"puzipgzg<ttughhgsyahghgz8hgfdggdttfhaags@6dttttfght6tafut&tzgdtu",
"tygppzzj:8yuzhhhfyihghgx8hggggggttfhaagf@8sttttdgh66tagut&8hgdyp",
"tpzppggz<tyazhhffuuhgzgztggggddgptdhauhs#7stttygghtwrpgy8&8zgdyu",
"tpgapggg:8tazghhdyiggggktgggdgggptshaufd&tstttpfdhurrdgi8&tggdyp",
"tpzaphhh:6tdhhgffyudhhfk8fffdgdgatahatff=8stttydffattdfpt@thffta",
"tagauhhg36tdhhggfuyfghfk8hgfdggdutphitfd=uftttyfhhdtrahat#7hffta",
"tafsphhh<etffsfgduydhhgk8ggfgdgdutthptfd-idttttdfhdiedgpt+thgsta",
"tpgdphhh:6pfuypffyufhhfk8gggdgdgpttfatfa;igu6ttdggdttdgatotfgats",
"rpffahhh36pduytsfytddggk8dffffddttyfitgp:udutttdfdaytdddt@tggpta",
"ragfahfh<6patttafptdggfh8gddfffa6ttfttga<ifpettdgdsptdfdt$tgspta",
"rpfgdggh:1aatttugytafgfh8iuaffda1ttfttdp:ifutttdgddptafdt$tdstta",
"ttffdfdh38aae86tgpqdfhfh8ttdddda<etdtpfp<pfyt6tdgdspyafdi%tgstts",
"tydgfgff2rrirrrtfprpfkfk7trdddgy1tratysy>idatrtfgddyrdgdp%tgarts",
"ttagdffj:75irrerdietgfff7rtddddt<etarasy2tdarrtdfddyradda-yfyets",
"rydfafgf:65arreraa6tdfff7rysdddr>rtaraay2ifarrtafddprdddd=ygyeys",
"rydgpdgf:65arteriaetffdf4ryddaaw>ryyesst>ydat6tsgddyedadd=yfrepd",
"rragasdf;65iryr7iseraffh3epfddpw*rptrfat>isdterddddyedaas=parepd",
"ryadaafg;7>irapryaerahdf7eaaadpq,tartfpt2tsfterddadyradag-paeepd",
"rydgaidj=e>iysartseeafdf6radadr,wypryfat>tddterddadtradas=ppeepa",
"eradaidf&65sysaryieepfdf6taaaarweypeyfpr>tddpetddddyeaads=ppeepa",
"eypfdpdf%75spddeuaeeygss7raadpeweatepdpr,tadpetadaaywaadd;ppewad",
"etddaydf%7tspdartpeeysdd6raaapewesreaday,rddaeeadadyeaadd;prewpa",
"etaffpdf%epdyaaeyaeetddawraadyw1rderddar;edaareadadyeaadp;yrewaa",
"etadapad$epsyaaeyaeetdsseraaarwwpaetadar;wddaeeadadyqaada=yrwwpa",
"erddapdaX5psyadeppeetdadweaaayqepawrdaar>wdade5adadyeydap,yrewaa",
"erdddpapXwpsrpaeppeeydaawraaayqeapwydday-1dadtwpaaayepdaa%yrewpa",
"wyadapat 1ydrpaeppeerdaa,eyaayqyaywtaaay-1paaewyaaaywydaa*rrewpa",
"qydfaaat wpdrpdeapeetdaa,yaaaeqyaywrdaap>,padt1taaaywyapa*yywwyp",
"wyaaaaay qpdrraeppeetaaa;raayyqyayqyaaaa,,yadywraaayqyaaa%yrqqya",
"wyaaaaaa.qpdtyaepaeetadp%tpayyqyayqrdaad>,radrweaaarqyaad,yywqea",
"qyaadyayX1payypeppwetdap%rpaayqyarwrayad<,eparweyaayqyaad,yyqqwa",
"qyaaaraa+waarypeppwwtdat%rpayyqyayqwaapd5,wpap5eaaaeqyaad%rywqqy",
"qyaadyya$wpdryyeppwwyaiu%ypdpyqeyyqqpaap5,eeaywwyaayqyyaa-ypeqqr",
"qyayaera%wparryeapwwraat$yapyyqyaywqpppd2<eeaywwyaaeqeaaa-ypeqqw",
"qyaaayea%wydrrywpp55ypae$qypyyqeaywwppaa35wwyywweaayqyyya,rarqqq",
"qyaaayea*wparrpwyy5wyape$qypyyqqyywwrppa35wwtye1yyaeqyyep>epyqqq",
"qrayptea*wpptrywyyqwraae$yyayyqqayqqyyaa6ew5ryewwaarqyrwp,epp11w",
"qwaapyea*wpdrwywyywqrpar$eayayqqyyqqyyya37e5eyeqeyayqrewi,eppw1,",
"qwpapyep=5pprwtwayqqyppy$eayyyqqyyqqyaya5rewwtrwwayrqewqi<eppw,1",
"eqtapytp*1ppywrqyawqyapp,eyyyyqqyyqqyyya2rrwwtywwyayqreqy2eppe11",
"eqeyyyrp$qyayerwyyeqyaye$eyyyyqqyeqeyyya2etwqrywqayyqrwqt1eyarqq",
"yqqrytwy*qayrwrwyyeqyayy,qayyyqqyyqqyyyy2ryeqyywqyyyweeqr1erprq1",
"ywqwqwwy$qyarwywyaqqyyyy,eyyyyqqyyqyyyya1eywqyywqyyywee1r5rrarw,",
"ywwqqqry$qyaywrwyyeqyyyy$qyyyeqeyeqyyyyyqeyrqryqqyyyqeewe,reppw1"
};
